<svg xmlns="http://www.w3.org/2000/svg" viewBox="0 0 730.63 271.8"><defs><style>.cls-1,.cls-2,.cls-6{fill:none;}.cls-1,.cls-2,.cls-3,.cls-4,.cls-5,.cls-6{stroke:#018000;stroke-miterlimit:10;}.cls-1{stroke-width:31.6px;}.cls-2{stroke-width:32.54px;}.cls-3,.cls-4,.cls-5{fill:#018000;}.cls-3{stroke-width:12.6px;}.cls-4{stroke-width:17.19px;}.cls-5{stroke-width:13.49px;}.cls-6{stroke-width:30.9px;}</style></defs><g id="Layer_2" data-name="Layer 2"><g id="Layer_1-2" data-name="Layer 1"><path class="cls-1" d="M239.7,127.75A112,112,0,1,0,122.81,239.59"/><path class="cls-2" d="M148.49,260.76V174.53a21.84,21.84,0,0,1,21.84-21.84l65.54.19"/><path class="cls-3" d="M343.75,202.35a52.21,52.21,0,0,0-6.14-25.42,44.47,44.47,0,0,0-17.48-17.67q-11.36-6.44-26.08-6.43-15.14,0-26.75,6.52A45.23,45.23,0,0,0,249.25,178q-6.42,12.12-6.43,28.17t6.62,28.25a46.81,46.81,0,0,0,18.24,18.81,52.37,52.37,0,0,0,26.37,6.61q18.51,0,31-9.35a46.26,46.26,0,0,0,7.94-7.52l-14-8.87a27.62,27.62,0,0,1-6.29,6q-7.45,5.2-18.6,5.2-13.62,0-23.15-8.6t-10.5-23.91h82.78A100.48,100.48,0,0,0,343.75,202.35Zm-83.16-3.59q1.32-14.74,10.49-23.06a31.84,31.84,0,0,1,22.21-8.31,36.8,36.8,0,0,1,16.53,3.68,28.18,28.18,0,0,1,11.81,10.77A31.66,31.66,0,0,1,326,198.76Z"/><path class="cls-3" d="M568,202.35a52.21,52.21,0,0,0-6.14-25.42,44.47,44.47,0,0,0-17.48-17.67q-11.36-6.44-26.08-6.43-15.12,0-26.75,6.52A45.23,45.23,0,0,0,473.46,178Q467,190.08,467,206.13t6.62,28.25a46.81,46.81,0,0,0,18.24,18.81,52.37,52.37,0,0,0,26.37,6.61q18.51,0,31-9.35a46.26,46.26,0,0,0,7.94-7.52l-14-8.87a27.57,27.57,0,0,1-6.28,6c-5,3.47-11.19,5.2-18.61,5.2q-13.62,0-23.15-8.6t-10.49-23.91H567.4A103.23,103.23,0,0,0,568,202.35Zm-83.16-3.59q1.32-14.74,10.49-23.06a31.84,31.84,0,0,1,22.21-8.31A36.84,36.84,0,0,1,534,171.07a28.21,28.21,0,0,1,11.8,10.77,31.66,31.66,0,0,1,4.36,16.92Z"/><path class="cls-4" d="M405.05,236.44,448.88,116.8h25L418.46,258.1H391.13L335.69,116.8H361Z"/><path class="cls-5" d="M695,169.36v65.35q0,8.08,3.44,11.43t11.93,3.33h13.56v15.58H707.3q-15.37,0-23.07-7.08t-7.68-23.26V169.36H662.18V154.19h14.37V126.27H695v27.92h28.93v15.17Z"/><path class="cls-6" d="M596.62,264.7V182.8a20.73,20.73,0,0,1,20.74-20.74h81.49"/></g></g></svg>